<?xml version="1.0" standalone="no"?>
<!DOCTYPE svg PUBLIC "-//W3C//DTD SVG 20010904//EN"
 "http://www.w3.org/TR/2001/REC-SVG-20010904/DTD/svg10.dtd">
<svg version="1.0" xmlns="http://www.w3.org/2000/svg"
 width="2048.000000pt" height="2048.000000pt" viewBox="0 0 2048.000000 2048.000000"
 preserveAspectRatio="xMidYMid meet">

<g transform="translate(0.000000,2048.000000) scale(0.100000,-0.100000)"
fill="#000000" stroke="none">
<path d="M8220 20260 c-1335 -84 -2522 -388 -3645 -934 -1124 -547 -2046
-1273 -2773 -2184 -1361 -1705 -1989 -4004 -1751 -6412 152 -1539 659 -3033
1478 -4355 527 -849 1174 -1595 2088 -2407 2721 -2418 6016 -3677 9063 -3463
913 64 1783 254 2611 568 513 195 809 346 1073 543 655 492 986 1205 986 2124
0 420 -76 687 -608 2120 -170 458 -348 953 -370 1030 -5 19 -35 116 -65 215
-108 347 -166 604 -188 828 -21 206 9 500 77 769 34 136 68 226 130 349 140
275 332 395 556 348 298 -62 674 -458 1056 -1114 36 -60 109 -193 164 -295
285 -527 531 -773 875 -872 113 -33 331 -33 453 0 387 105 751 457 884 854 47
139 109 533 143 908 22 243 24 882 5 1125 -91 1109 -370 2132 -879 3220 -433
925 -1082 1924 -1808 2780 -1628 1921 -3798 3290 -6205 3914 -615 160 -1290
272 -1965 327 -230 18 -1160 28 -1385 14z m-1342 -2631 c437 -48 843 -254
1119 -568 480 -547 579 -1303 255 -1947 -98 -195 -289 -431 -457 -563 -245
-194 -521 -317 -830 -367 -133 -21 -377 -21 -519 1 -728 111 -1301 660 -1449
1389 -19 95 -22 143 -22 326 0 243 16 350 81 547 250 766 1027 1270 1822 1182z
m5617 -139 c713 -142 1259 -695 1386 -1406 30 -167 30 -430 1 -596 -129 -713
-668 -1264 -1381 -1409 -140 -29 -412 -36 -561 -15 -512 72 -944 346 -1227
778 -376 574 -372 1332 12 1903 285 425 719 693 1235 765 115 16 411 5 535
-20z m-8465 -4515 c370 -66 700 -241 955 -507 247 -257 406 -574 465 -923 19
-114 22 -155 17 -330 -4 -150 -10 -224 -26 -298 -150 -693 -667 -1209 -1361
-1358 -91 -20 -135 -23 -335 -24 -205 0 -243 3 -345 24 -237 49 -476 152 -670
289 -52 36 -151 123 -220 192 -446 444 -612 1074 -445 1688 184 673 771 1176
1475 1262 108 13 379 5 490 -15z m2555 -4435 c372 -63 690 -232 956 -507 819
-848 573 -2247 -486 -2763 -286 -139 -590 -198 -892 -172 -246 21 -428 73
-648 182 -480 239 -810 669 -927 1210 -19 91 -22 135 -23 330 0 197 3 239 23
339 126 620 551 1106 1148 1314 264 92 562 115 849 67z"/>
</g>
</svg>
